<svg width="24" height="26" viewBox="0 0 24 26" fill="none" xmlns="http://www.w3.org/2000/svg">
<ellipse cx="12.25" cy="12.849" rx="11.5" ry="12.1571" fill="white"/>
<path d="M23.25 12.849C23.25 19.3136 18.2993 24.5062 12.25 24.5062C6.20068 24.5062 1.25 19.3136 1.25 12.849C1.25 6.38443 6.20068 1.19189 12.25 1.19189C18.2993 1.19189 23.25 6.38443 23.25 12.849Z" stroke="#2B2B2B"/>
<path d="M17.6643 12.849C17.6643 16.1491 17.0306 19.1122 16.0282 21.2317C15.0076 23.3895 13.696 24.5062 12.4143 24.5062C11.1326 24.5062 9.82103 23.3895 8.80044 21.2317C7.79799 19.1122 7.16431 16.1491 7.16431 12.849C7.16431 9.54901 7.79799 6.58587 8.80044 4.46642C9.82103 2.30859 11.1326 1.19189 12.4143 1.19189C13.696 1.19189 15.0076 2.30859 16.0282 4.46642C17.0306 6.58587 17.6643 9.54901 17.6643 12.849Z" stroke="#2B2B2B"/>
<line x1="1.07855" y1="9.06323" x2="23.4214" y2="9.06323" stroke="#202020"/>
<line x1="1.07855" y1="16.2917" x2="23.4214" y2="16.2917" stroke="#2B2B2B"/>
</svg>
